# xmcd
#
# Track frame offsets:
#	150
#	14728
#	31093
#	42323
#	58058
#	68073
#	88881
#	107940
#	117706
#	137957
#	149258
#	160595
#	182459
#	202739
#
# Disc length: 2905 seconds
#
# Revision: 0
# Processed by: cddbd v1.5.1PL0 Copyright (c) Steve Scherf et al.
# Submitted via: dBpowerAMP V4.0
#
DISCID=c80b570e
DTITLE=Billy Don Burns - Heroes, Friends and Other Troubled Souls
DYEAR=1900
DGENRE=Country
TTITLE0=Mississippi
TTITLE1=I Was There
TTITLE2=Haggard and Hank
TTITLE3=Dark Side of The Spoon
TTITLE4=No Man's Land
TTITLE5=Sailin' Down The Nile
TTITLE6=Patsy
TTITLE7=Keith Whitley Blue
TTITLE8=Runnin' Drugs Out of Mexico
TTITLE9=Full Blown Addict
TTITLE10=Rock On
TTITLE11=Tired and Troubled Soldiers
TTITLE12=Give My Love To Rose
TTITLE13=Tired and Troubled Soldiers  (Radio Edit)
EXTD=
EXTT0=
EXTT1=
EXTT2=
EXTT3=
EXTT4=
EXTT5=
EXTT6=
EXTT7=
EXTT8=
EXTT9=
EXTT10=
EXTT11=
EXTT12=
EXTT13=
PLAYORDER=
